<?xml version="1.0" encoding="UTF-8" standalone="no"?>
<!-- Created with Inkscape (http://www.inkscape.org/) -->

<svg
   width="20.931479mm"
   height="28.189352mm"
   viewBox="0 0 20.931477 28.189353"
   version="1.1"
   id="svg1"
   inkscape:version="1.3.1 (9b9bdc1480, 2023-11-25, custom)"
   sodipodi:docname="five.svg"
   xml:space="preserve"
   xmlns:inkscape="http://www.inkscape.org/namespaces/inkscape"
   xmlns:sodipodi="http://sodipodi.sourceforge.net/DTD/sodipodi-0.dtd"
   xmlns="http://www.w3.org/2000/svg"
   xmlns:svg="http://www.w3.org/2000/svg"><sodipodi:namedview
     id="namedview1"
     pagecolor="#ffffff"
     bordercolor="#000000"
     borderopacity="0.25"
     inkscape:showpageshadow="2"
     inkscape:pageopacity="0.0"
     inkscape:pagecheckerboard="0"
     inkscape:deskcolor="#d1d1d1"
     inkscape:document-units="mm"
     inkscape:zoom="1.1800326"
     inkscape:cx="168.21569"
     inkscape:cy="147.02983"
     inkscape:window-width="1600"
     inkscape:window-height="831"
     inkscape:window-x="0"
     inkscape:window-y="0"
     inkscape:window-maximized="1"
     inkscape:current-layer="layer1" /><defs
     id="defs1" /><g
     inkscape:label="Layer 1"
     inkscape:groupmode="layer"
     id="layer1"
     transform="translate(-84.931464,-136.20059)"><path
       style="fill:#000000"
       id="path2"
       d="" /><path
       style="fill:#000000"
       id="path1"
       d="" /><path
       style="fill:#06b6d4;fill-opacity:1"
       d="m 91.917515,163.97231 c -3.61476,-0.90157 -6.54784,-3.83272 -6.97838,-6.9738 -0.25233,-1.841 5.79824,-1.93826 6.65861,-0.10704 1.89531,4.03403 8.06294,2.37409 8.06294,-2.17004 0,-3.88201 -4.77408,-5.88292 -7.64272,-3.20321 -1.27907,1.19483 -6.54596,0.13782 -6.4513,-1.29471 0.21201,-3.20835 0.89444,-11.71605 1.02402,-12.76615 l 0.15507,-1.25677 h 8.83872 8.838715 v 2.77813 2.77812 h -6.181325 -6.18133 l -0.1786,2.31511 c -0.0982,1.2733 -0.25176,2.72786 -0.34117,3.23235 -0.16257,0.91724 -0.16257,0.91724 0.7031,0.18883 5.65573,-4.75899 13.573215,-0.63365 13.618895,7.096 0.0401,6.77934 -6.565315,11.22383 -13.945245,9.38318 z"
       id="path7" /></g></svg>
