<?xml version="1.0" encoding="UTF-8" standalone="no"?>
<!-- Created with Inkscape (http://www.inkscape.org/) -->

<svg
   width="23.018749mm"
   height="27.736925mm"
   viewBox="0 0 23.018748 27.736926"
   version="1.1"
   id="svg1"
   inkscape:version="1.3.1 (9b9bdc1480, 2023-11-25, custom)"
   sodipodi:docname="four.svg"
   xml:space="preserve"
   xmlns:inkscape="http://www.inkscape.org/namespaces/inkscape"
   xmlns:sodipodi="http://sodipodi.sourceforge.net/DTD/sodipodi-0.dtd"
   xmlns="http://www.w3.org/2000/svg"
   xmlns:svg="http://www.w3.org/2000/svg"><sodipodi:namedview
     id="namedview1"
     pagecolor="#ffffff"
     bordercolor="#000000"
     borderopacity="0.25"
     inkscape:showpageshadow="2"
     inkscape:pageopacity="0.0"
     inkscape:pagecheckerboard="0"
     inkscape:deskcolor="#d1d1d1"
     inkscape:document-units="mm"
     inkscape:zoom="1.1800326"
     inkscape:cx="213.1297"
     inkscape:cy="97.878649"
     inkscape:window-width="1600"
     inkscape:window-height="831"
     inkscape:window-x="0"
     inkscape:window-y="0"
     inkscape:window-maximized="1"
     inkscape:current-layer="layer1" /><defs
     id="defs1" /><g
     inkscape:label="Layer 1"
     inkscape:groupmode="layer"
     id="layer1"
     transform="translate(-73.073932,-149.17945)"><path
       style="fill:#000000"
       id="path2"
       d="" /><path
       style="fill:#000000"
       id="path1"
       d="" /><path
       style="fill:#06b6d4;fill-opacity:1"
       d="m 86.303102,174.66745 v -2.24896 h -6.61458 -6.61459 v -2.69412 c 0,-2.69412 0,-2.69412 4.92457,-11.44323 2.70851,-4.81201 5.01036,-8.84235 5.11523,-8.95632 0.10487,-0.11397 1.57876,-0.1735 3.2753,-0.1323 l 3.08463,0.0749 -4.88878,8.73125 c -2.68883,4.80219 -4.89048,8.82055 -4.89257,8.92969 -0.002,0.10914 1.54402,0.19843 3.43579,0.19843 h 3.43958 v -3.70416 -3.70417 h 3.04271 3.04271 v 3.70417 3.70416 h 1.71979 1.71979 v 2.64584 2.64583 h -1.71979 -1.71979 v 2.24896 2.24896 h -3.175 -3.175 z"
       id="path7" /></g></svg>
