<?xml version="1.0" encoding="UTF-8" standalone="no"?>
<!-- Created with Inkscape (http://www.inkscape.org/) -->

<svg
   width="121.61369mm"
   height="52.980129mm"
   viewBox="0 0 121.61368 52.980131"
   version="1.1"
   id="svg1"
   inkscape:version="1.3.1 (9b9bdc1480, 2023-11-25, custom)"
   sodipodi:docname="hearts.svg"
   xml:space="preserve"
   xmlns:inkscape="http://www.inkscape.org/namespaces/inkscape"
   xmlns:sodipodi="http://sodipodi.sourceforge.net/DTD/sodipodi-0.dtd"
   xmlns="http://www.w3.org/2000/svg"
   xmlns:svg="http://www.w3.org/2000/svg"><sodipodi:namedview
     id="namedview1"
     pagecolor="#ffffff"
     bordercolor="#000000"
     borderopacity="0.25"
     inkscape:showpageshadow="2"
     inkscape:pageopacity="0.0"
     inkscape:pagecheckerboard="0"
     inkscape:deskcolor="#d1d1d1"
     inkscape:document-units="mm"
     inkscape:zoom="1.0437885"
     inkscape:cx="225.62041"
     inkscape:cy="99.158015"
     inkscape:window-width="1600"
     inkscape:window-height="831"
     inkscape:window-x="0"
     inkscape:window-y="0"
     inkscape:window-maximized="1"
     inkscape:current-layer="layer1" /><defs
     id="defs1" /><g
     inkscape:label="Layer 1"
     inkscape:groupmode="layer"
     id="layer1"
     transform="translate(-36.445641,-150.65208)"><path
       style="fill:#000000"
       id="path2"
       d="" /><path
       style="fill:#000000"
       id="path1"
       d="" /><g
       id="g9"><path
         style="fill:#000000"
         d="m 104.10365,194.59499 -3.57024,-3.4164 -3.312601,3.30524 c -1.82193,1.81789 -3.43473,3.30525 -3.584,3.30525 -0.73466,0 -21.1853,-21.05309 -21.88997,-22.53481 -6.28543,-13.21657 8.09798,-25.9085 20.37146,-17.97577 1.56516,1.01161 1.56516,1.01161 2.34267,0.37325 9.103241,-7.47403 23.643501,0.60682 22.420131,12.46014 -0.14657,1.42013 -0.14657,1.42013 0.79092,1.72954 3.21221,1.06012 5.70924,5.59325 4.97273,9.02752 -0.56018,2.612 -1.31129,3.56392 -8.27152,10.48286 l -6.69933,6.6596 z"
         id="path7" /><path
         style="fill:#d946ef;fill-opacity:1"
         d="m 95.41027,189.1027 c 0,0 1.673472,-0.90345 1.68706,-1.7022 0.0146,-0.8581 -1.74917,-1.88927 -1.74917,-1.88927 -7.74298,-8.36313 2.73263,-19.94154 11.26455,-12.45041 0.9744,0.85553 0.9744,0.85553 2.1046,-0.061 0.6216,-0.50409 1.62737,-1.16693 2.23505,-1.47297 2.43809,-1.22789 1.56514,-6.73264 -1.54561,-9.74655 -3.87354,-3.75294 -9.20461,-3.4871 -13.75728,0.68602 -2.13856,1.96028 -1.91024,1.95535 -3.97325,0.0858 -8.28596,-7.50907 -19.797666,-0.7767 -16.05829,9.39132 0.500334,1.3605 17.16141,18.86149 17.95628,18.86149 0.0819,0 0.90817,-0.76599 1.83606,-1.7022 z"
         id="path9"
         sodipodi:nodetypes="csssscsscsscc" /><path
         style="fill:#06b6d4;fill-opacity:1"
         d="m 118.1148,181.06505 c 0.76166,-2.30785 -1.08619,-4.83009 -3.51947,-4.80397 -1.19123,0.0128 -1.65541,0.31241 -4.43646,2.86359 l -2.41077,2.21151 -2.4729,-2.39231 c -3.17646,-3.07293 -5.384917,-3.53414 -7.012855,-1.46455 -1.89462,2.40862 -1.47843,3.25937 4.543045,9.28679 l 5.09098,5.09601 4.96415,-4.95899 c 3.2985,-3.29507 5.0615,-5.25396 5.25428,-5.83808 z"
         id="path8" /></g><path
       style="fill:#d946ef;fill-opacity:1"
       d="m 129.88794,202.65316 c -1.95199,-1.952 -2.37044,-1.38682 10.84268,-14.64469 l 10.87722,-10.91406 -10.87722,-10.91406 c -13.21312,-13.25787 -12.79467,-12.6927 -10.84268,-14.64469 1.1354,-1.1354 2.09239,-1.1724 3.49249,-0.13505 2.05222,1.52052 24.40465,24.21494 24.58997,24.96619 0.38428,1.55777 0.0347,1.96771 -11.86879,13.91984 -14.5637,14.62317 -14.21953,14.36066 -16.21367,12.36652 z"
       id="path10" /><path
       style="fill:#d946ef;fill-opacity:1"
       d="m 64.617033,202.65316 c 1.951995,-1.952 2.37044,-1.38682 -10.842677,-14.64469 L 42.897133,177.09441 53.774356,166.18035 c 13.213117,-13.25787 12.794672,-12.6927 10.842677,-14.64469 -1.135395,-1.1354 -2.092389,-1.1724 -3.49249,-0.13505 -2.052219,1.52052 -24.404647,24.21494 -24.589971,24.96619 -0.384276,1.55777 -0.03474,1.96771 11.868787,13.91984 14.563706,14.62317 14.219533,14.36066 16.213674,12.36652 z"
       id="path11" /></g></svg>
