<?xml version="1.0" encoding="UTF-8" standalone="no"?>
<!-- Created with Inkscape (http://www.inkscape.org/) -->

<svg
   width="50.304966mm"
   height="6.3500595mm"
   viewBox="0 0 50.304966 6.3500595"
   version="1.1"
   id="svg1"
   xml:space="preserve"
   inkscape:version="1.3.1 (9b9bdc1480, 2023-11-25, custom)"
   sodipodi:docname="hr.svg"
   xmlns:inkscape="http://www.inkscape.org/namespaces/inkscape"
   xmlns:sodipodi="http://sodipodi.sourceforge.net/DTD/sodipodi-0.dtd"
   xmlns:xlink="http://www.w3.org/1999/xlink"
   xmlns="http://www.w3.org/2000/svg"
   xmlns:svg="http://www.w3.org/2000/svg"><sodipodi:namedview
     id="namedview1"
     pagecolor="#ffffff"
     bordercolor="#000000"
     borderopacity="0.25"
     inkscape:showpageshadow="2"
     inkscape:pageopacity="0.0"
     inkscape:pagecheckerboard="0"
     inkscape:deskcolor="#d1d1d1"
     inkscape:document-units="mm"
     inkscape:zoom="0.42355992"
     inkscape:cx="227.83081"
     inkscape:cy="-135.75411"
     inkscape:window-width="1600"
     inkscape:window-height="831"
     inkscape:window-x="0"
     inkscape:window-y="0"
     inkscape:window-maximized="1"
     inkscape:current-layer="layer1" /><defs
     id="defs1"><linearGradient
       id="linearGradient1"
       inkscape:collect="always"><stop
         style="stop-color:#d946ef;stop-opacity:1;"
         offset="0"
         id="stop1" /><stop
         style="stop-color:#06b6d4;stop-opacity:1;"
         offset="0.57287699"
         id="stop2" /></linearGradient><linearGradient
       inkscape:collect="always"
       xlink:href="#linearGradient1"
       id="linearGradient2"
       x1="104.89005"
       y1="159.28651"
       x2="102.73232"
       y2="175.45712"
       gradientUnits="userSpaceOnUse" /></defs><g
     inkscape:label="Layer 1"
     inkscape:groupmode="layer"
     id="layer1"
     transform="translate(-79.647058,-159.13479)"><path
       style="fill:url(#linearGradient2);fill-opacity:1"
       d="m 81.100967,164.96883 c -1.060442,-0.6466 -1.471028,-1.4051 -1.453365,-2.68491 0.01783,-1.29218 0.405204,-1.99399 1.453365,-2.6331 1.11761,-0.68145 2.284268,-0.65077 3.38357,0.089 3.336262,2.24509 0.05052,7.32293 -3.38357,5.22902 z m 12.58995,-0.089 c -1.84975,-1.24476 -1.84975,-3.89527 0,-5.14003 l 0.899023,-0.60498 h 16.51047 c 17.80313,0 17.46818,-0.0251 18.45251,1.38027 0.53214,0.75974 0.53214,2.82971 0,3.58945 -0.98433,1.40533 -0.64938,1.38028 -18.45251,1.38028 H 94.58994 Z"
       id="path1" /></g></svg>
