<?xml version="1.0" encoding="UTF-8" standalone="no"?>
<!-- Created with Inkscape (http://www.inkscape.org/) -->

<svg
   width="121.61369mm"
   height="52.980129mm"
   viewBox="0 0 121.61368 52.980131"
   version="1.1"
   id="svg1"
   inkscape:version="1.3.1 (9b9bdc1480, 2023-11-25, custom)"
   sodipodi:docname="message-me.svg"
   xml:space="preserve"
   xmlns:inkscape="http://www.inkscape.org/namespaces/inkscape"
   xmlns:sodipodi="http://sodipodi.sourceforge.net/DTD/sodipodi-0.dtd"
   xmlns="http://www.w3.org/2000/svg"
   xmlns:svg="http://www.w3.org/2000/svg"><sodipodi:namedview
     id="namedview1"
     pagecolor="#ffffff"
     bordercolor="#000000"
     borderopacity="0.25"
     inkscape:showpageshadow="2"
     inkscape:pageopacity="0.0"
     inkscape:pagecheckerboard="0"
     inkscape:deskcolor="#d1d1d1"
     inkscape:document-units="mm"
     inkscape:zoom="1.0437885"
     inkscape:cx="225.62041"
     inkscape:cy="99.158015"
     inkscape:window-width="1600"
     inkscape:window-height="831"
     inkscape:window-x="0"
     inkscape:window-y="0"
     inkscape:window-maximized="1"
     inkscape:current-layer="layer1" /><defs
     id="defs1" /><g
     inkscape:label="Layer 1"
     inkscape:groupmode="layer"
     id="layer1"
     transform="translate(-36.445641,-150.65208)"><path
       style="fill:#000000"
       id="path2"
       d="" /><path
       style="fill:#000000"
       id="path1"
       d="" /><path
       style="fill:#d946ef;fill-opacity:1"
       d="m 129.88794,202.65316 c -1.95199,-1.952 -2.37044,-1.38682 10.84268,-14.64469 l 10.87722,-10.91406 -10.87722,-10.91406 c -13.21312,-13.25787 -12.79467,-12.6927 -10.84268,-14.64469 1.1354,-1.1354 2.09239,-1.1724 3.49249,-0.13505 2.05222,1.52052 24.40465,24.21494 24.58997,24.96619 0.38428,1.55777 0.0347,1.96771 -11.86879,13.91984 -14.5637,14.62317 -14.21953,14.36066 -16.21367,12.36652 z"
       id="path10" /><path
       style="fill:#d946ef;fill-opacity:1"
       d="m 64.617033,202.65316 c 1.951995,-1.952 2.37044,-1.38682 -10.842677,-14.64469 L 42.897133,177.09441 53.774356,166.18035 c 13.213117,-13.25787 12.794672,-12.6927 10.842677,-14.64469 -1.135395,-1.1354 -2.092389,-1.1724 -3.49249,-0.13505 -2.052219,1.52052 -24.404647,24.21494 -24.589971,24.96619 -0.384276,1.55777 -0.03474,1.96771 11.868787,13.91984 14.563706,14.62317 14.219533,14.36066 16.213674,12.36652 z"
       id="path11" /><path
       style="fill:#06b6d4;fill-opacity:1"
       d="m 75.147578,199.8289 c 0,-0.1217 0.586472,-2.84015 1.303271,-6.04101 l 1.303272,-5.81974 -0.889353,-2.22722 c -9.503081,-23.79872 20.488629,-43.49963 38.358362,-25.1968 17.49667,17.92074 -2.47284,47.20563 -25.759154,37.77529 l -2.22006,-0.89906 -5.91467,1.3149 c -6.607867,1.46901 -6.181668,1.39361 -6.181668,1.09364 z m 27.913542,-4.9731 c 16.40998,-4.05898 18.98084,-27.30434 3.83646,-34.68869 -16.213781,-7.90578 -33.03606,8.77032 -25.152093,24.93354 1.00183,2.05389 1.00183,2.05389 0.260296,5.38642 -0.88628,3.98305 -1.276784,3.5875 2.671659,2.70619 3.302428,-0.73711 3.302428,-0.73711 5.038022,0.12745 4.25337,2.11877 8.848856,2.64736 13.345656,1.53509 z m -8.132776,-6.94613 c -4.52053,-1.48964 -8.139099,-6.05329 -8.139099,-10.26482 0,-0.87802 0,-0.87802 2.38125,-0.87802 2.38125,0 2.38125,0 2.387061,0.8599 0.01329,1.96635 1.645372,4.28521 3.756515,5.33724 4.236284,2.11103 9.960529,-0.94714 9.990199,-5.33724 0.006,-0.8599 0.006,-0.8599 2.42407,-0.8599 2.41827,0 2.41827,0 2.2726,1.38906 -0.74034,7.05964 -8.33471,11.97411 -15.072596,9.75378 z"
       id="path12" /></g></svg>
