<?xml version="1.0" encoding="UTF-8" standalone="no"?>
<!-- Created with Inkscape (http://www.inkscape.org/) -->

<svg
   width="21.385853mm"
   height="21.057699mm"
   viewBox="0 0 21.385852 21.0577"
   version="1.1"
   id="svg1"
   inkscape:version="1.3.1 (9b9bdc1480, 2023-11-25, custom)"
   sodipodi:docname="money.svg"
   xml:space="preserve"
   xmlns:inkscape="http://www.inkscape.org/namespaces/inkscape"
   xmlns:sodipodi="http://sodipodi.sourceforge.net/DTD/sodipodi-0.dtd"
   xmlns="http://www.w3.org/2000/svg"
   xmlns:svg="http://www.w3.org/2000/svg"><sodipodi:namedview
     id="namedview1"
     pagecolor="#ffffff"
     bordercolor="#000000"
     borderopacity="0.25"
     inkscape:showpageshadow="2"
     inkscape:pageopacity="0.0"
     inkscape:pagecheckerboard="0"
     inkscape:deskcolor="#d1d1d1"
     inkscape:document-units="mm"
     inkscape:zoom="3.3376363"
     inkscape:cx="0.74903308"
     inkscape:cy="61.570519"
     inkscape:window-width="1600"
     inkscape:window-height="831"
     inkscape:window-x="0"
     inkscape:window-y="0"
     inkscape:window-maximized="1"
     inkscape:current-layer="layer1" /><defs
     id="defs1" /><g
     inkscape:label="Layer 1"
     inkscape:groupmode="layer"
     id="layer1"
     transform="translate(-32.518033,-166.29831)"><path
       style="fill:#000000"
       id="path2"
       d="" /><path
       style="fill:#000000"
       id="path1"
       d="" /><path
       style="fill:#06b6d4;fill-opacity:1"
       d="m 40.432834,187.04156 c -5.8094,-1.8421 -9.032809,-7.57002 -7.384186,-13.12154 0.414348,-1.39526 0.411623,-1.42482 -0.171925,-1.86499 -0.59275,-0.44711 -0.592388,-0.44757 1.100333,-1.39267 2.811729,-1.56987 2.61932,-1.6522 2.61932,1.12077 0,2.38508 -0.0079,2.41466 -0.562815,2.11766 -0.726065,-0.38858 -0.944831,-0.0518 -1.177864,1.81335 -0.757623,6.06381 5.386739,11.24001 10.868804,9.15623 1.563277,-0.59422 1.678624,-0.57682 2.267839,0.34202 0.536674,0.83691 0.536793,0.84443 0.01777,1.1222 -1.838278,0.98382 -5.597923,1.3346 -7.577276,0.70697 z m 9.345878,-5.16799 c -0.05447,-1.53327 0.01049,-2.36568 0.179122,-2.29524 1.139277,0.47593 1.169633,0.46981 1.377984,-0.27767 1.794007,-6.43618 -4.638939,-12.79306 -10.6384,-10.51261 -1.566077,0.59528 -1.678198,0.57751 -2.280142,-0.36145 -0.552596,-0.86199 -0.552596,-0.86199 0.397026,-1.25877 8.337754,-3.48373 17.083972,4.06796 14.558969,12.57057 -0.414348,1.39526 -0.411624,1.42482 0.171924,1.86499 0.592751,0.44711 0.592389,0.44757 -1.100332,1.39267 -2.765349,1.54398 -2.568485,1.62686 -2.666151,-1.12249 z m -7.626086,-0.28186 c 0,-0.45861 -0.176389,-0.52917 -1.322917,-0.52917 -1.322916,0 -1.322916,0 -1.322916,-1.04993 0,-1.04994 0,-1.04994 3.108854,-1.12448 4.333956,-0.10392 4.559607,-0.79374 0.330729,-1.01106 -3.168463,-0.16282 -3.574559,-0.29434 -4.110827,-1.33137 -1.002883,-1.93936 0.274805,-3.94982 2.510188,-3.94982 0.6305,0 0.806889,-0.11568 0.806889,-0.52917 0,-0.44097 0.176389,-0.52917 1.058333,-0.52917 0.881945,0 1.058334,0.0882 1.058334,0.52917 0,0.45861 0.176389,0.52917 1.322916,0.52917 1.322917,0 1.322917,0 1.322917,1.04993 0,1.04994 0,1.04994 -3.108854,1.12448 -4.333956,0.10392 -4.559607,0.79374 -0.330729,1.01106 3.168463,0.16282 3.574559,0.29434 4.110827,1.33137 1.009272,1.95171 -0.273508,3.94982 -2.535777,3.94982 -0.604911,0 -0.7813,0.11947 -0.7813,0.52917 0,0.44097 -0.176389,0.52917 -1.058334,0.52917 -0.881944,0 -1.058333,-0.0882 -1.058333,-0.52917 z"
       id="path3" /></g></svg>
