<?xml version="1.0" encoding="UTF-8" standalone="no"?>
<!-- Created with Inkscape (http://www.inkscape.org/) -->

<svg
   width="20.944723mm"
   height="27.970556mm"
   viewBox="0 0 20.944722 27.970557"
   version="1.1"
   id="svg1"
   inkscape:version="1.3.1 (9b9bdc1480, 2023-11-25, custom)"
   sodipodi:docname="six.svg"
   xml:space="preserve"
   xmlns:inkscape="http://www.inkscape.org/namespaces/inkscape"
   xmlns:sodipodi="http://sodipodi.sourceforge.net/DTD/sodipodi-0.dtd"
   xmlns="http://www.w3.org/2000/svg"
   xmlns:svg="http://www.w3.org/2000/svg"><sodipodi:namedview
     id="namedview1"
     pagecolor="#ffffff"
     bordercolor="#000000"
     borderopacity="0.25"
     inkscape:showpageshadow="2"
     inkscape:pageopacity="0.0"
     inkscape:pagecheckerboard="0"
     inkscape:deskcolor="#d1d1d1"
     inkscape:document-units="mm"
     inkscape:zoom="1.1800326"
     inkscape:cx="158.04648"
     inkscape:cy="89.404307"
     inkscape:window-width="1600"
     inkscape:window-height="831"
     inkscape:window-x="0"
     inkscape:window-y="0"
     inkscape:window-maximized="1"
     inkscape:current-layer="layer1" /><defs
     id="defs1" /><g
     inkscape:label="Layer 1"
     inkscape:groupmode="layer"
     id="layer1"
     transform="translate(-87.668752,-151.53932)"><path
       style="fill:#000000"
       id="path2"
       d="" /><path
       style="fill:#000000"
       id="path1"
       d="" /><path
       style="fill:#06b6d4;fill-opacity:1"
       d="m 94.623742,179.16596 c -4.91879,-1.40869 -7.60482,-5.60295 -6.82007,-10.64965 0.40688,-2.61663 1.80567,-5.28368 6.01174,-11.46248 l 3.69223,-5.42395 3.217898,-0.0743 c 1.76984,-0.0409 3.2179,-0.002 3.2179,0.0873 0,0.0889 -1.36922,2.16661 -3.04271,4.61721 -3.607378,5.28255 -3.490728,4.7625 -1.068258,4.7625 9.815218,0 12.177118,13.47196 3.098978,17.67613 -1.81063,0.83852 -6.157628,1.083 -8.307708,0.46725 z m 5.642548,-5.25021 c 1.16294,-0.7769 1.82414,-2.12107 1.82465,-3.70943 0.002,-5.46592 -7.452828,-5.84247 -7.865558,-0.39731 -0.27194,3.58789 3.24184,5.97664 6.040908,4.10674 z"
       id="path7" /></g></svg>
