<?xml version="1.0" encoding="UTF-8" standalone="no"?>
<!-- Created with Inkscape (http://www.inkscape.org/) -->

<svg
   width="22.013235mm"
   height="28.050152mm"
   viewBox="0 0 22.013234 28.050153"
   version="1.1"
   id="svg1"
   inkscape:version="1.3.1 (9b9bdc1480, 2023-11-25, custom)"
   sodipodi:docname="three.svg"
   xml:space="preserve"
   xmlns:inkscape="http://www.inkscape.org/namespaces/inkscape"
   xmlns:sodipodi="http://sodipodi.sourceforge.net/DTD/sodipodi-0.dtd"
   xmlns="http://www.w3.org/2000/svg"
   xmlns:svg="http://www.w3.org/2000/svg"><sodipodi:namedview
     id="namedview1"
     pagecolor="#ffffff"
     bordercolor="#000000"
     borderopacity="0.25"
     inkscape:showpageshadow="2"
     inkscape:pageopacity="0.0"
     inkscape:pagecheckerboard="0"
     inkscape:deskcolor="#d1d1d1"
     inkscape:document-units="mm"
     inkscape:zoom="1.1800326"
     inkscape:cx="170.75799"
     inkscape:cy="93.641478"
     inkscape:window-width="1600"
     inkscape:window-height="831"
     inkscape:window-x="0"
     inkscape:window-y="0"
     inkscape:window-maximized="1"
     inkscape:current-layer="layer1" /><defs
     id="defs1" /><g
     inkscape:label="Layer 1"
     inkscape:groupmode="layer"
     id="layer1"
     transform="translate(-84.229426,-150.36099)"><path
       style="fill:#000000"
       id="path2"
       d="" /><path
       style="fill:#000000"
       id="path1"
       d="" /><path
       style="fill:#d946ef;fill-opacity:1"
       d="m 90.686488,177.88606 c -3.12822,-0.99912 -5.62841,-3.44364 -6.22594,-6.08731 -0.44369,-1.96307 -0.63292,-1.85208 3.15755,-1.85208 3.11967,0 3.43958,0.0437 3.43958,0.47029 0,2.65921 5.25843,3.59437 7.36388,1.30961 2.347962,-2.54794 0.11458,-5.23309 -4.51961,-5.43385 l -2.57969,-0.11176 v -2.15656 c 0,-2.15655 0,-2.15655 2.91549,-5.06245 l 2.91549,-2.90591 -5.75976,-0.13229 -5.75976,-0.13229 v -2.64583 -2.64584 l 9.85573,-0.0694 9.855732,-0.0694 v 2.46252 c 0,2.46253 0,2.46253 -3.63802,5.87723 -2.000912,1.87809 -3.671142,3.49014 -3.711632,3.58234 -0.0405,0.0922 0.61437,0.32064 1.45521,0.50763 9.143482,2.03338 9.024772,12.46962 -0.17285,15.19649 -2.04487,0.60626 -6.5422,0.55328 -8.5914,-0.10121 z"
       id="path7" /></g></svg>
