<?xml version="1.0" encoding="UTF-8" standalone="no"?>
<!-- Created with Inkscape (http://www.inkscape.org/) -->

<svg
   width="23.303177mm"
   height="21.362005mm"
   viewBox="0 0 23.303176 21.362006"
   version="1.1"
   id="svg1"
   inkscape:version="1.3.1 (9b9bdc1480, 2023-11-25, custom)"
   sodipodi:docname="thumbs-up.svg"
   xml:space="preserve"
   xmlns:inkscape="http://www.inkscape.org/namespaces/inkscape"
   xmlns:sodipodi="http://sodipodi.sourceforge.net/DTD/sodipodi-0.dtd"
   xmlns="http://www.w3.org/2000/svg"
   xmlns:svg="http://www.w3.org/2000/svg"><sodipodi:namedview
     id="namedview1"
     pagecolor="#ffffff"
     bordercolor="#000000"
     borderopacity="0.25"
     inkscape:showpageshadow="2"
     inkscape:pageopacity="0.0"
     inkscape:pagecheckerboard="0"
     inkscape:deskcolor="#d1d1d1"
     inkscape:document-units="mm"
     inkscape:zoom="3.3376363"
     inkscape:cx="8.2393638"
     inkscape:cy="61.570519"
     inkscape:window-width="1600"
     inkscape:window-height="831"
     inkscape:window-x="0"
     inkscape:window-y="0"
     inkscape:window-maximized="1"
     inkscape:current-layer="layer1" /><defs
     id="defs1" /><g
     inkscape:label="Layer 1"
     inkscape:groupmode="layer"
     id="layer1"
     transform="translate(-30.526093,-166.29831)"><path
       style="fill:#000000"
       id="path2"
       d="" /><path
       style="fill:#000000"
       id="path1"
       d="" /><path
       style="fill:#d946ef;fill-opacity:1"
       d="m 30.863437,187.31641 c -0.449792,-0.44979 -0.449792,-11.61521 0,-12.065 0.19885,-0.19885 1.187807,-0.3175 2.646381,-0.3175 2.638283,0 2.097286,0.48699 6.553027,-5.89888 2.135918,-3.06116 2.176653,-3.08661 3.697789,-2.31059 2.153135,1.09845 2.44958,2.05377 1.623819,5.23291 l -0.49825,1.91823 h 3.533043 c 4.838778,0 5.410024,0.34538 5.410024,3.27097 0,1.31059 -2.876911,9.07702 -3.762309,10.15663 -0.383454,0.46756 -18.736545,0.48021 -19.203524,0.0132 z m 3.915834,-6.0325 c 0,-4.23333 0,-4.23333 -1.058334,-4.23333 -1.058333,0 -1.058333,0 -1.058333,4.23333 0,4.23333 0,4.23333 1.058333,4.23333 1.058334,0 1.058334,0 1.058334,-4.23333 z m 14.103484,3.9026 c 3.963916,-9.55647 3.996954,-9.19427 -0.838636,-9.19427 -5.262855,0 -5.631531,-0.37536 -4.619317,-4.70308 0.421825,-1.80352 0.422158,-1.95304 0.0053,-2.36991 -0.536665,-0.53667 -0.305763,-0.78256 -3.324949,3.54079 -1.336344,1.91359 -2.6051,3.62481 -2.819457,3.80271 -0.315093,0.2615 -0.38974,1.17874 -0.38974,4.78897 v 4.46552 h 5.924818 c 4.490301,0 5.958032,-0.0801 6.062,-0.33073 z"
       id="path3" /></g></svg>
