<?xml version="1.0" encoding="UTF-8" standalone="no"?>
<!-- Created with Inkscape (http://www.inkscape.org/) -->

<svg
   width="132.22528mm"
   height="53.075596mm"
   viewBox="0 0 132.22527 53.075597"
   version="1.1"
   id="svg1"
   inkscape:version="1.3.1 (9b9bdc1480, 2023-11-25, custom)"
   sodipodi:docname="tools.svg"
   xml:space="preserve"
   xmlns:inkscape="http://www.inkscape.org/namespaces/inkscape"
   xmlns:sodipodi="http://sodipodi.sourceforge.net/DTD/sodipodi-0.dtd"
   xmlns="http://www.w3.org/2000/svg"
   xmlns:svg="http://www.w3.org/2000/svg"><sodipodi:namedview
     id="namedview1"
     pagecolor="#ffffff"
     bordercolor="#000000"
     borderopacity="0.25"
     inkscape:showpageshadow="2"
     inkscape:pageopacity="0.0"
     inkscape:pagecheckerboard="0"
     inkscape:deskcolor="#d1d1d1"
     inkscape:document-units="mm"
     inkscape:zoom="1.1800326"
     inkscape:cx="227.53608"
     inkscape:cy="130.92858"
     inkscape:window-width="1600"
     inkscape:window-height="831"
     inkscape:window-x="0"
     inkscape:window-y="0"
     inkscape:window-maximized="1"
     inkscape:current-layer="layer1" /><defs
     id="defs1" /><g
     inkscape:label="Layer 1"
     inkscape:groupmode="layer"
     id="layer1"
     transform="translate(-69.404592,-140.3955)"><path
       style="fill:#000000"
       id="path2"
       d="" /><path
       style="fill:#000000"
       id="path1"
       d="" /><g
       id="g7"><path
         style="fill:#d946ef;fill-opacity:1"
         d="m 139.88134,161.64009 -1.57246,-1.58904 2.50678,-2.51501 c 2.50679,-2.515 2.50679,-2.515 2.91112,-4.56227 0.40432,-2.04727 0.40432,-2.04727 4.10104,-4.0936 l 3.69671,-2.04633 1.67699,1.675 1.677,1.67501 -1.90654,3.41379 c -2.4069,4.30971 -2.07735,3.97577 -4.30634,4.36378 -1.90361,0.33137 -1.90361,0.33137 -4.43289,2.79954 -2.99764,2.92521 -2.43847,2.81224 -4.35141,0.87913 z"
         id="path7" /><path
         style="fill:#d946ef;fill-opacity:1"
         d="m 138.93557,173.92421 -12.32367,-12.32367 -1.54758,0.4499 c -5.26008,1.52914 -10.46741,-2.2648 -10.49847,-7.64895 -0.0187,-3.24236 0.004,-3.24306 3.18656,-0.0981 3.69066,3.64702 4.789,4.10025 6.86669,2.83352 2.68069,-1.63437 2.17318,-3.75344 -1.88145,-7.85589 -3.03596,-3.07177 -3.03747,-3.12039 -0.0968,-3.10963 5.6689,0.0207 9.59363,5.44422 7.74868,10.70772 -0.41733,1.19063 -0.41733,1.19063 12.07394,13.68855 l 12.49128,12.49792 -1.57453,1.59114 c -0.866,0.87513 -1.69749,1.59114 -1.84776,1.59114 -0.15027,0 -5.81887,-5.54565 -12.59689,-12.32367 z"
         id="path6" /><path
         style="fill:#d946ef;fill-opacity:1"
         d="m 116.05834,185.59845 c -1.57776,-1.57775 -1.36003,-1.9203 5.75954,-9.06161 7.2815,-7.30374 6.54466,-6.85979 8.35058,-5.03116 1.79289,1.81544 2.27339,1.02115 -5.0381,8.32808 -7.13415,7.12968 -7.48444,7.35227 -9.07202,5.76469 z"
         id="path5" /><path
         style="fill:#06b6d4;fill-opacity:1"
         d="m 173.45849,192.49205 c -1.952,-1.952 -2.37044,-1.38682 10.84268,-14.64469 l 10.87722,-10.91406 -10.87722,-10.91406 c -13.21312,-13.25787 -12.79468,-12.6927 -10.84268,-14.64469 1.13539,-1.1354 2.09239,-1.1724 3.49249,-0.13505 2.05222,1.52052 24.40465,24.21494 24.58997,24.96619 0.38428,1.55777 0.0347,1.96771 -11.86879,13.91984 -14.5637,14.62317 -14.21953,14.36066 -16.21367,12.36652 z"
         id="path4" /><path
         style="fill:#06b6d4;fill-opacity:1"
         d="m 94.083499,192.62709 c -2.05222,-1.52052 -24.40465,-24.21493 -24.58998,-24.96619 -0.38427,-1.55777 -0.0347,-1.96771 11.86879,-13.91983 14.56371,-14.62317 14.21953,-14.36066 16.21368,-12.36652 1.95199,1.95199 2.37044,1.38682 -10.84268,14.64469 l -10.87723,10.91406 10.87723,10.91406 c 13.21312,13.25787 12.79467,12.69269 10.84268,14.64469 -1.1354,1.13539 -2.09239,1.1724 -3.49249,0.13504 z"
         id="path3" /></g></g></svg>
