<?xml version="1.0" encoding="UTF-8" standalone="no"?>
<!-- Created with Inkscape (http://www.inkscape.org/) -->

<svg
   width="20.709032mm"
   height="28.113815mm"
   viewBox="0 0 20.709031 28.113816"
   version="1.1"
   id="svg1"
   inkscape:version="1.3.1 (9b9bdc1480, 2023-11-25, custom)"
   sodipodi:docname="two.svg"
   xml:space="preserve"
   xmlns:inkscape="http://www.inkscape.org/namespaces/inkscape"
   xmlns:sodipodi="http://sodipodi.sourceforge.net/DTD/sodipodi-0.dtd"
   xmlns="http://www.w3.org/2000/svg"
   xmlns:svg="http://www.w3.org/2000/svg"><sodipodi:namedview
     id="namedview1"
     pagecolor="#ffffff"
     bordercolor="#000000"
     borderopacity="0.25"
     inkscape:showpageshadow="2"
     inkscape:pageopacity="0.0"
     inkscape:pagecheckerboard="0"
     inkscape:deskcolor="#d1d1d1"
     inkscape:document-units="mm"
     inkscape:zoom="1.1800326"
     inkscape:cx="-142.79266"
     inkscape:cy="116.5222"
     inkscape:window-width="1600"
     inkscape:window-height="831"
     inkscape:window-x="0"
     inkscape:window-y="0"
     inkscape:window-maximized="1"
     inkscape:current-layer="layer1" /><defs
     id="defs1" /><g
     inkscape:label="Layer 1"
     inkscape:groupmode="layer"
     id="layer1"
     transform="translate(-167.26903,-144.31421)"><path
       style="fill:#000000"
       id="path2"
       d="" /><path
       style="fill:#000000"
       id="path1"
       d="" /><path
       style="fill:#d946ef;fill-opacity:1"
       d="m 167.60514,169.97245 v -2.45558 l 4.55119,-3.96057 c 8.51971,-7.41408 8.94256,-7.90884 8.94256,-10.46344 0,-2.76129 -3.17469,-4.3905 -5.85476,-3.00458 -0.79376,0.41047 -1.80042,2.13219 -1.81234,3.09971 -0.005,0.42938 -0.28304,0.46477 -3.11467,0.39687 -3.10885,-0.0745 -3.10885,-0.0745 -3.02674,-1.39746 0.66732,-10.75195 20.27243,-10.36843 20.28763,0.39688 0.005,3.78115 -1.16577,5.44321 -8.92651,12.66871 -0.98227,0.91452 -1.78594,1.7124 -1.78594,1.77307 0,0.0607 2.50031,0.1103 5.55625,0.1103 h 5.55625 v 2.64583 2.64584 H 177.7916 167.60514 Z"
       id="path7" /></g></svg>
