<?xml version="1.0" encoding="UTF-8" standalone="no"?>
<!-- Created with Inkscape (http://www.inkscape.org/) -->

<svg
   width="19.027727mm"
   height="20.097298mm"
   viewBox="0 0 19.027726 20.097298"
   version="1.1"
   id="svg1"
   inkscape:version="1.3.1 (9b9bdc1480, 2023-11-25, custom)"
   sodipodi:docname="version-control.svg"
   xml:space="preserve"
   xmlns:inkscape="http://www.inkscape.org/namespaces/inkscape"
   xmlns:sodipodi="http://sodipodi.sourceforge.net/DTD/sodipodi-0.dtd"
   xmlns="http://www.w3.org/2000/svg"
   xmlns:svg="http://www.w3.org/2000/svg"><sodipodi:namedview
     id="namedview1"
     pagecolor="#ffffff"
     bordercolor="#000000"
     borderopacity="0.25"
     inkscape:showpageshadow="2"
     inkscape:pageopacity="0.0"
     inkscape:pagecheckerboard="0"
     inkscape:deskcolor="#d1d1d1"
     inkscape:document-units="mm"
     inkscape:zoom="3.3376363"
     inkscape:cx="-3.7451654"
     inkscape:cy="61.570519"
     inkscape:window-width="1600"
     inkscape:window-height="831"
     inkscape:window-x="0"
     inkscape:window-y="0"
     inkscape:window-maximized="1"
     inkscape:current-layer="layer1" /><defs
     id="defs1" /><g
     inkscape:label="Layer 1"
     inkscape:groupmode="layer"
     id="layer1"
     transform="translate(-33.677479,-166.28541)"><path
       style="fill:#000000"
       id="path2"
       d="" /><path
       style="fill:#000000"
       id="path1"
       d="" /><path
       style="fill:#d946ef;fill-opacity:1"
       d="m 35.325803,186.03226 c -2.079963,-1.02652 -2.226751,-4.35295 -0.239028,-5.41675 0.988756,-0.52916 1.016885,-6.8513 0.03283,-7.37795 -2.593749,-1.38813 -1.416798,-5.84481 1.543538,-5.84481 3.149596,0 4.53372,4.38522 1.839275,5.82724 -0.988756,0.52917 -1.016885,6.8513 -0.03283,7.37795 3.493267,1.86954 0.414968,7.19066 -3.143785,5.43432 z m 12.7,0 c -2.079964,-1.02652 -2.226751,-4.35295 -0.239029,-5.41675 1.328273,-0.71087 0.951757,-8.98942 -0.408846,-8.98942 -1.058333,0 -1.058333,0 -1.058333,1.612 v 1.61201 l -2.360036,-2.07503 c -2.833062,-2.49093 -2.833062,-1.92371 0,-4.41464 l 2.360036,-2.07502 v 1.612 c 0,1.61201 0,1.61201 1.467235,1.61201 2.616159,0 2.766098,0.32679 2.766098,6.02868 0,4.68272 0.0061,4.7331 0.61666,5.05984 3.493266,1.86954 0.414967,7.19066 -3.143785,5.43432 z"
       id="path3" /></g></svg>
